<svg id="SvgjsSvg1001" width="288" height="288" xmlns="http://www.w3.org/2000/svg" version="1.1" xmlns:xlink="http://www.w3.org/1999/xlink" xmlns:svgjs="http://svgjs.com/svgjs"><defs id="SvgjsDefs1002"></defs><g id="SvgjsG1008"><svg xmlns="http://www.w3.org/2000/svg" xmlns:bx="https://boxy-svg.com" width="288" height="288" viewBox="42.44 206.59 129.053 73.695"><path stroke="#254579" d="M 149.821 202.501 H 182.264 L 182.264 194.062 L 202.113 207.198 L 182.264 220.333 L 182.264 211.894 H 149.821 V 202.501 Z" transform="rotate(90 144.636 211.873)" bx:shape="arrow 149.821 194.062 52.292 26.271 9.393 19.849 0 1@dddd3241" fill="#254579" class="color000 svgShape colorStroke000 svgStroke"></path><path stroke="#254579" d="M 149.821 202.501 H 182.264 L 182.264 194.062 L 202.113 207.198 L 182.264 220.333 L 182.264 211.894 H 149.821 V 202.501 Z" transform="rotate(-90 167.99 251.82)" bx:shape="arrow 149.821 194.062 52.292 26.271 9.393 19.849 0 1@dddd3241" fill="#254579" class="color000 svgShape colorStroke000 svgStroke"></path><path stroke="#254579" d="M 52.782 270.469 L 52.881 216.674 L 69.129 216.773 L 78.837 253.428 L 88.546 216.674 L 104.694 216.674 L 104.694 270.469 L 93.004 270.37 L 92.806 238.088 L 83.989 270.469 L 73.587 270.469 L 64.668 240.272 L 64.678 270.568 L 52.782 270.469 Z" fill="#254579" class="color000 svgShape colorStroke000 svgStroke"></path><rect width="124.098" height="69.225" x="44.959" y="208.825" fill="none" stroke="#254579" stroke-width="3" paint-order="stroke" class="colorStroke000 svgStroke"></rect></svg></g></svg>